<svg width="36" height="36" viewBox="0 0 36 36" fill="none" xmlns="http://www.w3.org/2000/svg">
<path fill-rule="evenodd" clip-rule="evenodd" d="M25.0966 0H20.1276V4.96906H25.0966V0ZM19.2438 4.42606H12.7105H12.7101L12.7099 4.42625L5.38795 11.6159C2.1252 13.9588 0 17.7858 0 22.1091C0 29.2389 5.77978 35.0188 12.9096 35.0188C20.0394 35.0188 25.8192 29.2389 25.8192 22.1091C25.8192 21.6777 25.7981 21.2513 25.7568 20.8307V10.7748H19.2438V4.42606ZM25.4581 5.60205H29.5666V9.71058H25.4581V5.60205ZM31.8433 13.4909H28.1932V17.141H31.8433V13.4909ZM31.3479 8.59458H34.156V11.4027H31.3479V8.59458ZM33.3221 0.510192H30.514V3.31831H33.3221V0.510192Z" fill="#1BBBC8"/>
</svg>
