<svg width="187" height="39" viewBox="0 0 187 39" fill="none" xmlns="http://www.w3.org/2000/svg">
<path fill-rule="evenodd" clip-rule="evenodd" d="M25.0966 0H20.1276V4.96906H25.0966V0ZM19.2438 4.42606H12.7105H12.7101L12.7099 4.42625L5.38795 11.6159C2.1252 13.9588 0 17.7858 0 22.1091C0 29.2389 5.77978 35.0188 12.9096 35.0188C20.0394 35.0188 25.8192 29.2389 25.8192 22.1091C25.8192 21.6777 25.7981 21.2513 25.7568 20.8307V10.7748H19.2438V4.42606ZM25.4581 5.60205H29.5666V9.71058H25.4581V5.60205ZM31.8433 13.4909H28.1932V17.141H31.8433V13.4909ZM31.3479 8.59458H34.156V11.4027H31.3479V8.59458ZM33.3221 0.510192H30.514V3.31831H33.3221V0.510192Z" fill="#1BBBC8"/>
<path d="M44.9139 29V7.65367H53.3357C54.9547 7.65367 56.334 7.96289 57.4736 8.58132C58.6132 9.1928 59.4818 10.044 60.0794 11.135C60.6839 12.219 60.9862 13.4697 60.9862 14.8872C60.9862 16.3048 60.6804 17.5555 60.0689 18.6395C59.4575 19.7235 58.5715 20.5678 57.4111 21.1723C56.2576 21.7769 54.8609 22.0791 53.221 22.0791H47.8532V18.4623H52.4914C53.36 18.4623 54.0757 18.3129 54.6386 18.0141C55.2084 17.7084 55.6322 17.288 55.9102 16.753C56.1951 16.211 56.3375 15.5891 56.3375 14.8872C56.3375 14.1785 56.1951 13.56 55.9102 13.0319C55.6322 12.4969 55.2084 12.0835 54.6386 11.7916C54.0688 11.4928 53.3461 11.3434 52.4706 11.3434H49.4271V29H44.9139ZM63.8343 29V12.9903H68.2745V29H63.8343ZM66.0648 10.9265C65.4047 10.9265 64.8383 10.7076 64.3658 10.2698C63.9003 9.82513 63.6675 9.29356 63.6675 8.67513C63.6675 8.06364 63.9003 7.53902 64.3658 7.10125C64.8383 6.65654 65.4047 6.43418 66.0648 6.43418C66.7249 6.43418 67.2878 6.65654 67.7533 7.10125C68.2258 7.53902 68.4621 8.06364 68.4621 8.67513C68.4621 9.29356 68.2258 9.82513 67.7533 10.2698C67.2878 10.7076 66.7249 10.9265 66.0648 10.9265ZM75.5419 12.9903L78.4812 18.5874L81.4934 12.9903H86.0483L81.4101 20.9951L86.1734 29H81.6394L78.4812 23.4654L75.3751 29H70.789L75.5419 20.9951L70.9558 12.9903H75.5419ZM95.4082 29.3127C93.7613 29.3127 92.3438 28.9792 91.1556 28.3121C89.9743 27.6381 89.064 26.6861 88.4248 25.4562C87.7855 24.2193 87.4658 22.7566 87.4658 21.0681C87.4658 19.4213 87.7855 17.9759 88.4248 16.7321C89.064 15.4883 89.9639 14.519 91.1243 13.8241C92.2917 13.1292 93.6606 12.7818 95.231 12.7818C96.2872 12.7818 97.2704 12.952 98.1807 13.2925C99.0979 13.6261 99.897 14.1298 100.578 14.8039C101.266 15.4779 101.801 16.3256 102.183 17.3471C102.565 18.3616 102.756 19.5498 102.756 20.9117V22.1312H89.2377V19.3796H98.5768C98.5768 18.7403 98.4378 18.174 98.1598 17.6806C97.8819 17.1873 97.4962 16.8016 97.0029 16.5237C96.5165 16.2388 95.9502 16.0963 95.3039 16.0963C94.6299 16.0963 94.0323 16.2527 93.5112 16.5653C92.997 16.8711 92.594 17.2845 92.3021 17.8057C92.0103 18.3199 91.8609 18.8932 91.8539 19.5255V22.1417C91.8539 22.9338 91.9998 23.6183 92.2917 24.195C92.5905 24.7717 93.0109 25.2164 93.5529 25.5291C94.0949 25.8418 94.7376 25.9982 95.4811 25.9982C95.9745 25.9982 96.4262 25.9287 96.8361 25.7897C97.2461 25.6507 97.597 25.4423 97.8888 25.1643C98.1807 24.8864 98.403 24.5459 98.5559 24.1429L102.663 24.4139C102.454 25.4006 102.027 26.2622 101.381 26.9988C100.741 27.7284 99.9144 28.2982 98.8999 28.7082C97.8923 29.1112 96.7284 29.3127 95.4082 29.3127ZM110.094 7.65367V29H105.654V7.65367H110.094ZM127.845 29H121.257V7.65367H128.136C130.207 7.65367 131.979 8.08102 133.452 8.9357C134.925 9.78344 136.054 11.0029 136.84 12.5942C137.625 14.1785 138.017 16.0755 138.017 18.2851C138.017 20.5087 137.621 22.4231 136.829 24.0282C136.037 25.6264 134.884 26.8563 133.369 27.718C131.854 28.5727 130.013 29 127.845 29ZM123.842 26.7069H127.678C129.443 26.7069 130.905 26.3665 132.066 25.6855C133.226 25.0045 134.091 24.0352 134.661 22.7775C135.231 21.5198 135.516 20.0223 135.516 18.2851C135.516 16.5619 135.234 15.0783 134.672 13.8345C134.109 12.5838 133.268 11.6248 132.149 10.9578C131.031 10.2837 129.637 9.94673 127.97 9.94673H123.842V26.7069ZM142.02 29V12.9903H144.396V15.4084H144.563C144.855 14.6162 145.383 13.9735 146.147 13.4801C146.912 12.9868 147.773 12.7401 148.732 12.7401C148.913 12.7401 149.139 12.7436 149.41 12.7505C149.681 12.7575 149.886 12.7679 150.025 12.7818V15.2833C149.941 15.2625 149.75 15.2312 149.451 15.1895C149.16 15.1409 148.85 15.1165 148.524 15.1165C147.746 15.1165 147.051 15.2798 146.439 15.6064C145.835 15.9261 145.355 16.3708 145.001 16.9406C144.653 17.5034 144.48 18.1462 144.48 18.8688V29H142.02ZM158.957 29.3335C157.512 29.3335 156.244 28.9896 155.153 28.3017C154.069 27.6137 153.221 26.6513 152.61 25.4145C152.005 24.1776 151.703 22.7323 151.703 21.0785C151.703 19.4108 152.005 17.9551 152.61 16.7113C153.221 15.4675 154.069 14.5016 155.153 13.8137C156.244 13.1258 157.512 12.7818 158.957 12.7818C160.403 12.7818 161.667 13.1258 162.751 13.8137C163.842 14.5016 164.69 15.4675 165.294 16.7113C165.906 17.9551 166.212 19.4108 166.212 21.0785C166.212 22.7323 165.906 24.1776 165.294 25.4145C164.69 26.6513 163.842 27.6137 162.751 28.3017C161.667 28.9896 160.403 29.3335 158.957 29.3335ZM158.957 27.1239C160.055 27.1239 160.958 26.8424 161.667 26.2796C162.376 25.7168 162.901 24.9767 163.241 24.0595C163.582 23.1423 163.752 22.1486 163.752 21.0785C163.752 20.0084 163.582 19.0113 163.241 18.0871C162.901 17.1629 162.376 16.416 161.667 15.8462C160.958 15.2764 160.055 14.9915 158.957 14.9915C157.859 14.9915 156.956 15.2764 156.247 15.8462C155.539 16.416 155.014 17.1629 154.673 18.0871C154.333 19.0113 154.163 20.0084 154.163 21.0785C154.163 22.1486 154.333 23.1423 154.673 24.0595C155.014 24.9767 155.539 25.7168 156.247 26.2796C156.956 26.8424 157.859 27.1239 158.957 27.1239ZM169.967 35.0037V12.9903H172.343V15.5335H172.635C172.816 15.2555 173.066 14.9011 173.385 14.4703C173.712 14.0326 174.177 13.6434 174.782 13.3029C175.393 12.9555 176.22 12.7818 177.263 12.7818C178.611 12.7818 179.799 13.1188 180.827 13.7928C181.856 14.4668 182.658 15.4223 183.235 16.6592C183.812 17.896 184.1 19.3552 184.1 21.0368C184.1 22.7323 183.812 24.2019 183.235 25.4458C182.658 26.6826 181.859 27.6415 180.838 28.3225C179.816 28.9965 178.639 29.3335 177.304 29.3335C176.276 29.3335 175.453 29.1633 174.834 28.8228C174.216 28.4754 173.74 28.0828 173.406 27.645C173.073 27.2003 172.816 26.832 172.635 26.5402H172.426V35.0037H169.967ZM172.385 20.9951C172.385 22.2042 172.562 23.2708 172.916 24.195C173.271 25.1122 173.788 25.8314 174.469 26.3526C175.15 26.8668 175.984 27.1239 176.971 27.1239C177.999 27.1239 178.857 26.8529 179.545 26.3109C180.24 25.7619 180.761 25.0254 181.109 24.1012C181.463 23.1701 181.64 22.1347 181.64 20.9951C181.64 19.8694 181.467 18.8549 181.119 17.9516C180.779 17.0413 180.261 16.3221 179.566 15.794C178.878 15.259 178.013 14.9915 176.971 14.9915C175.97 14.9915 175.129 15.2451 174.448 15.7524C173.767 16.2527 173.253 16.9545 172.906 17.8578C172.558 18.7542 172.385 19.8 172.385 20.9951Z" fill="white"/>
</svg>
